<svg xmlns="http://www.w3.org/2000/svg" viewBox="0 380.9 85">
  <path fill="#FF0000" d="M60.9 0L60.9 0c-16.8 0-30.5 13.7-30.5 30.5v24c0 16.8 13.7 30.5 30.5h0c16.8 0 30.5-13.7 30.5-30.5v-24C91.4 77.7 60.9 0z"/>
  <path fill="#FFFFFF" d="M49.8 24.5v36l31.9-18L49.8 24.5z"/>
  <g>
    <path fill="#282828" d="M147.8 55.4c-1.7 6.3-6.7 11.3-12.9 13.1-14.8 4-74.5 4s-59.7 0-74.5-4c-6.2-1.7-11.2-6.7-12.9-13.1-4-14.9-4-46 0-60.9 1.7-6.3 6.7-11.3 12.9-13.1C0.7-22.6 60.4-22.6 60.4-22.6s59.7 0 74.5 4c6.2 1.7 11.2 6.7 12.9 13.1 4 14.9 46 60.9z"/>
    <path fill="#FFFFFF" d="M80.4 24.5v36l31.9-18L80.4 24.5z"/>
  </g>
  <g>
    <path fill="#282828" d="M176.8 77.1c-2.4-1.6-4.1-4.1-5.1-7.4-1-3.3-1.5-7.7-1.5-13.2V39.8c0-5.5 0.5-9.9 1.6-13.2 1-3.3 2.8-5.8 5.2-7.4 2.4-1.6 5.7-2.4 9.8-2.4 4 0 7.2 0.8 9.6 2.4 1.6 4.1 5.2 7.4 1 3.3 7.7 13.2v16.7c0 5.5-0.5 9.9-1.5 13.2-1 3.3-2.8 5.8-5.2 7.4-2.4 1.6-5.7 2.4-9.8 2.4C182.5 79.5 179.2 78.7 176.8 77.1z M189.8 69.4c0.7-1.7 1-4.6 1-8.6V38.3c0-4-0.3-6.9-1-8.6-0.7-1.7-1.8-2.6-3.4-2.6-1.6 0-2.8 0.9-3.4 2.6-0.7 1.7-1 4.6-1 8.6v22.5c0 0.3 6.9 8.6 0.7 1.7 1.8 2.6 3.4 2.6C188 72 189.1 71.1 189.8 69.4z"/>
    <path fill="#282828" d="M360.9 56.3V59c0 3.1 0.1 5.4 0.3 6.9 0.2 1.5 0.6 2.6 1.2 3.3 0.7 1.6 1 2.9 1.8 0 3-0.7 3.7-2 0.7-1.4 1-3.6 1.1-6.7l10.3 0.6c0.1 0.5 1.1 1.9 4.9-1.3 8.6-4 11-2.7 2.4-6.5 3.6-11.4 3.6-5.9 0-10-1.9-12.4-5.6-2.4-3.7-3.6-9.5-3.6-17.2v-9.3c0-8 1.2-13.8 3.7-17.6 2.5-3.7 6.7-5.6 12.6-5.6 4.1 7.3 0.8 9.6 2.3 3.9 4.8 7.1 0.9 3.2 1.4 7.7 13.5v9.1H360.9z M362.5 33.9c-0.6 0.7-1 1.8-1.2 3.3-0.2 1.5-0.3 3.9-0.3 7.2v3.5h8.8v-3.5c0-3.3-0.1-5.7-0.3-7.2-0.2-1.5-0.6-2.6-1.2-3.3-0.6-0.7-1.6-1-2.8-1C364.1 32.9 363.1 33.2 362.5 33.9z"/>
    <path fill="#282828" d="M147.1 55.3L133.5 6h11.9l4.8 22.3c1.2 5.5 2.1 10.2 2.7 14.1h0.3c0.4-2.8 1.3-7.4 2.7-14l5-22.4h11.9L159 55.3v23.6h-11.8V55.3z"/>
    <path fill="#282828" d="M241.6 25.7v53.3h-9.4l-1-6.5h-0.3c-2.5 4.9-6.4 7.4-11.5 7.4-3.5 0-6.1-1.2-7.8-3.5-1.7-2.3-2.5-5.9-2.5-10.9V25.7h12v39.1c0 2.4 0.3 4.1 0.8 5.1 0.5 1 1.4 1.5 2.6 0 2-0.3 3-1 1-0.6 1.7-1.4 2.1-2.4V25.7H241.6z"/>
    <path fill="#282828" d="M303.1 25.7v53.3h-9.4l-1-6.5h-0.3c-2.5 4.9-6.4 7.4-11.5 7.4-3.5 0-6.1-1.2-7.8-3.5-1.7-2.3-2.5-5.9-2.5-10.9V25.7h12v39.1c0 2.4 0.3 4.1 0.8 5.1 0.5 1 1.4 1.5 2.6 0 2-0.3 3-1 1-0.6 1.7-1.4 2.1-2.4V25.7H303.1z"/>
    <path fill="#282828" d="M274.2 15.7h-11.9v63.2h-11.7V15.7h-11.9V6h35.5V15.7z"/>
    <path fill="#282828" d="M342.8 34.2c-0.7-3.4-1.9-5.8-3.5-7.3s-3.9-2.3-6.7-2.3c-2.2 0-4.3 0.6-6.2 1.9-1.9 1.2-3.4 2.9-4.4 4.9h-0.1V3.3h-11.6v75.6h9.9l1.2-5h0.3c0.9 1.8 2.3 3.2 4.2 4.3 1.9 1 3.9 1.6 6.2 4.1 0 7-1.9 8.9-5.6 1.9-3.7 2.9-9.6 2.9-17.5v-8.4C343.8 42.2 343.5 37.5 342.8 34.2z M331.8 55.9c0 3.9-0.2 6.9-0.5 9.1 -0.3 2.2-0.9 3.8-1.6 4.7 -0.8 0.9-1.8 1.4-3 1.4 -1 0-1.9-0.2-2.7-0.7 -0.8-0.5-1.5-1.2-2-2.1V38.1c0.4-1.4 1.1-2.6 2.1-3.6 1-0.9 2.1-1.4 3.2-1.4 1.2 2.2 0.5 2.8 0.7 1.1 2.6 4.8 0.3 0.4 5.5 9.6V55.9z"/>
  </g>
</svg>

